<svg width="437" height="512" viewBox="0 0 437 512" fill="none" xmlns="http://www.w3.org/2000/svg">
<path d="M436.813 218.407C436.813 315 296.756 452.364 240.954 503.259C228.176 514.913 208.635 514.913 195.858 503.259C140.058 452.364 0 315 0 218.407C0 97.7844 97.7834 0 218.406 0C339.029 0 436.813 97.7844 436.813 218.407Z" fill="#557AB7"/>
<path d="M139.852 233.063C139.852 129.064 212.546 42.051 309.891 20.0407C282.061 7.18524 251.075 0 218.406 0C97.7834 0 0 97.7844 0 218.407C0 315.002 140.058 452.364 195.859 503.26C208.637 514.914 228.178 514.914 240.955 503.26C251.727 493.434 265.646 480.377 281.084 465.022C218.232 400.398 139.852 305.325 139.852 233.063V233.063Z" fill="#003893"/>
<path d="M218.406 56.8473C129.182 56.8473 56.8463 129.183 56.8463 218.407C56.8463 242.197 61.9888 264.793 71.2352 285.127L176.271 304.535L331.473 299.005L377.251 248.05C379.03 238.444 379.966 228.539 379.966 218.408C379.966 129.183 307.63 56.8473 218.406 56.8473V56.8473Z" fill="#DFF6FD"/>
<path d="M218.416 56.8442C129.192 56.8442 56.8565 129.18 56.8565 218.404C56.8565 242.194 61.9991 264.79 71.2455 285.124L157.684 301.096C146.594 277.353 139.861 254.227 139.861 233.06C139.861 160.914 174.838 96.9462 228.766 57.1795C225.339 56.9615 221.899 56.8442 218.416 56.8442V56.8442Z" fill="#99E6FC"/>
<path d="M325.012 207.567C320.589 204.028 314.285 204.08 309.913 207.69L266.664 243.513C266.664 243.513 205.518 284.427 207.154 283.948C208.79 283.47 302.583 336.365 302.583 336.365L350.91 310.86C363.828 292.377 372.982 271.077 377.251 248.048L325.012 207.567Z" fill="#E24262"/>
<path d="M266.664 243.513L350.91 310.861C321.711 352.639 273.247 379.967 218.406 379.967C152.972 379.967 96.6294 341.068 71.2352 285.127L185.288 190.678C189.659 187.068 195.964 187.006 200.386 190.545L266.664 243.513Z" fill="#DC143C"/>
<path d="M139.852 233.063C139.852 231.459 139.88 229.85 139.914 228.253L71.2352 285.126C95.1 337.699 146.307 375.219 206.696 379.548C169.371 330.338 139.852 277.403 139.852 233.063V233.063Z" fill="#E24262"/>
<path d="M265.985 175.908C286.428 175.908 303 159.452 303 139.152C299.748 147.364 293.862 154.162 286.366 158.591L283.207 156.253L289.402 151.639L281.906 149.732L285.871 143.058L278.127 144.165L279.273 136.537L272.551 140.536L270.631 133L265.985 139.152L261.338 133L259.387 140.505L252.696 136.568L253.842 144.258L246.098 143.119L250.125 149.794L242.567 151.701L248.762 156.315L245.665 158.683C238.324 154.377 232.345 147.733 229 139.244C229 159.544 245.572 176 266.015 176L265.985 175.908Z" fill="white"/>
<path d="M114 129L117.882 139.511L126.5 132.349L124.607 143.393L135.651 141.5L128.489 150.118L139 154L128.489 157.882L135.651 166.5L124.607 164.607L126.5 175.651L117.882 168.489L114 179L110.118 168.489L101.5 175.651L103.393 164.607L92.3494 166.5L99.5111 157.882L89 154L99.5111 150.118L92.3494 141.5L103.393 143.393L101.5 132.349L110.118 139.511L114 129Z" fill="white"/>
</svg>
